<svg width="230" height="230" viewBox="0 0 230 230" fill="none" xmlns="http://www.w3.org/2000/svg">
<g clip-path="url(#clip0_174_44)">
<path fill-rule="evenodd" clip-rule="evenodd" d="M77.0359 78.9609C96.2678 78.9755 111.844 94.476 111.83 113.584C111.815 132.692 96.214 148.169 76.9821 148.154C57.7502 148.139 42.1738 132.639 42.1885 113.531C42.2032 94.4225 57.804 78.9464 77.0359 78.9609" fill="#F9C900"/>
<path fill-rule="evenodd" clip-rule="evenodd" d="M68.7338 159.7C68.7338 160.118 68.68 160.537 68.5675 160.96L62.7881 182.319C62.0883 184.906 59.4115 186.437 56.8081 185.742C54.1998 185.047 52.6583 182.387 53.3581 179.8L59.1375 158.441C59.8372 155.854 62.514 154.323 65.1175 155.013C67.3 155.597 68.7338 157.561 68.7338 159.7" fill="#F9C900"/>
<path fill-rule="evenodd" clip-rule="evenodd" d="M44.5453 150.931C44.5453 152.239 44.0168 153.542 42.9695 154.495L26.6004 169.485C24.6185 171.299 21.5306 171.172 19.7053 169.203C17.8751 167.234 18.0023 164.166 19.9842 162.348L36.3534 147.362C38.3402 145.549 41.428 145.67 43.2534 147.644C44.1195 148.573 44.5453 149.755 44.5453 150.931" fill="#F9C900"/>
<mask id="mask0_174_44" style="mask-type:luminance" maskUnits="userSpaceOnUse" x="0" y="122" width="32" height="16">
<path fill-rule="evenodd" clip-rule="evenodd" d="M0 122.524V137.763H31.3167V122.524L0 122.524L0 122.524Z" fill="white"/>
</mask>
<g mask="url(#mask0_174_44)">
<path fill-rule="evenodd" clip-rule="evenodd" d="M31.3176 127.382C31.3176 129.541 29.8544 131.505 27.6571 132.069L6.10564 137.607C3.49734 138.278 0.83032 136.717 0.155001 134.126C-0.515425 131.534 1.05053 128.884 3.66372 128.213L25.2152 122.68C27.8235 122.009 30.4856 123.565 31.161 126.162C31.2686 126.57 31.3176 126.978 31.3176 127.382" fill="#F9C900"/>
</g>
<path fill-rule="evenodd" clip-rule="evenodd" d="M32.0028 100.208C32.0028 100.607 31.9539 101.01 31.8462 101.419C31.1758 104.01 28.5137 105.571 25.9054 104.905L4.34409 99.3911C1.73579 98.725 0.164937 96.0751 0.835362 93.4836C1.50579 90.8921 4.16792 89.3313 6.78111 89.9975L28.3375 95.5111C30.5396 96.0751 32.0028 98.0443 32.0028 100.208" fill="#F9C900"/>
<path fill-rule="evenodd" clip-rule="evenodd" d="M44.4258 76.5895C44.4258 77.805 43.9707 79.0205 43.0507 79.9589C41.1764 81.8843 38.0837 81.933 36.1458 80.0708L20.1583 64.6821C18.2205 62.8199 18.1715 59.7519 20.0458 57.8265C21.92 55.9011 25.0128 55.8525 26.9507 57.7147L42.9381 73.0985C43.9315 74.0514 44.4258 75.3205 44.4258 76.5895" fill="#F9C900"/>
<path fill-rule="evenodd" clip-rule="evenodd" d="M67.104 63.1051C67.104 65.2736 65.6262 67.2476 63.4142 67.8019C60.8011 68.4583 58.1438 66.8829 57.4881 64.2817L52.0464 42.8348C51.3906 40.2336 52.9762 37.6032 55.5894 36.9468C58.2025 36.2953 60.8598 37.8706 61.5155 40.467L66.9572 61.9138C67.0551 62.3125 67.104 62.7112 67.104 63.1051" fill="#F9C900"/>
<path fill-rule="evenodd" clip-rule="evenodd" d="M99.7858 43.2379C99.7858 43.6464 99.732 44.0596 99.6243 44.4729L93.9673 65.8614C93.2822 68.453 90.6103 69.9991 88.002 69.3184C85.3986 68.6377 83.8375 65.983 84.5226 63.3963L90.1796 42.003C90.8647 39.4163 93.5366 37.8653 96.1449 38.546C98.3373 39.1197 99.7858 41.084 99.7858 43.2379" fill="#F9C900"/>
<path fill-rule="evenodd" clip-rule="evenodd" d="M135.186 61.7068C135.186 63.0585 134.619 64.4053 133.508 65.3631L116.713 79.8814C114.682 81.6367 111.594 81.4227 109.828 79.4049C108.056 77.3823 108.272 74.3192 110.307 72.5591L127.102 58.0456C129.133 56.2855 132.216 56.4994 133.988 58.5221C134.795 59.441 135.186 60.5788 135.186 61.7068" fill="#F9C900"/>
<path fill-rule="evenodd" clip-rule="evenodd" d="M152.495 94.0767C152.495 96.2063 151.071 98.156 148.903 98.7492L127.44 104.598C124.837 105.308 122.15 103.791 121.441 101.205C120.726 98.6179 122.253 95.9535 124.856 95.2436L146.32 89.3944C148.923 88.6846 151.605 90.2016 152.319 92.7882C152.437 93.2161 152.495 93.6488 152.495 94.0767" fill="#F9C900"/>
<path fill-rule="evenodd" clip-rule="evenodd" d="M152.126 131.892C152.126 132.29 152.077 132.694 151.969 133.102C151.299 135.694 148.636 137.254 146.028 136.588L124.467 131.075C121.859 130.409 120.283 127.764 120.958 125.167C121.629 122.576 124.291 121.015 126.904 121.681L148.46 127.195C150.662 127.759 152.126 129.728 152.126 131.892" fill="#F9C900"/>
<path fill-rule="evenodd" clip-rule="evenodd" d="M133.895 165.197C133.895 166.456 133.405 167.71 132.427 168.658C130.499 170.535 127.406 170.501 125.522 168.585L109.96 152.769C108.076 150.853 108.11 147.785 110.038 145.913C111.966 144.037 115.059 144.071 116.943 145.986L132.505 161.803C133.435 162.746 133.895 163.971 133.895 165.197" fill="#F9C900"/>
<path fill-rule="evenodd" clip-rule="evenodd" d="M100.287 183.083C100.287 185.222 98.8528 187.177 96.6751 187.761C94.0717 188.456 91.39 186.924 90.6902 184.338L84.8962 162.983C84.1964 160.396 85.7379 157.737 88.3413 157.037C90.9447 156.341 93.6264 157.873 94.3262 160.46L100.115 181.814C100.233 182.237 100.287 182.665 100.287 183.083" fill="#F9C900"/>
<path fill-rule="evenodd" clip-rule="evenodd" d="M69.9032 132.478C54.3366 132.478 41.667 145.188 41.667 160.814C41.667 176.432 54.3366 189.146 69.9032 189.146H192.669C212.214 189.146 228.109 173.189 228.109 153.575C228.109 133.961 212.214 118.003 192.669 118.003C189.033 118.003 185.417 118.567 181.933 119.671L179.662 120.396L178.86 118.14C171.358 96.9698 151.304 82.748 128.964 82.748C101.653 82.748 78.9857 103.286 76.2355 130.518L75.981 133.042L73.4755 132.731C72.0857 132.556 70.9504 132.478 69.9032 132.478" fill="#EDF3F9"/>
</g>
<defs>
<clipPath id="clip0_174_44">
<rect width="230" height="154.1" fill="white" transform="translate(0 36.7998)"/>
</clipPath>
</defs>
</svg>
